<?xml version="1.0" encoding="utf-8"?>
<!-- Generator: Adobe Illustrator 16.0.0, SVG Export Plug-In . SVG Version: 6.00 Build 0)  -->
<!DOCTYPE svg PUBLIC "-//W3C//DTD SVG 1.1//EN" "http://www.w3.org/Graphics/SVG/1.1/DTD/svg11.dtd">
<svg version="1.1" id="Layer_1" xmlns="http://www.w3.org/2000/svg" xmlns:xlink="http://www.w3.org/1999/xlink" x="0px" y="0px"
	 width="276.224px" height="280.056px" viewBox="0 0 276.224 280.056" enable-background="new 0 0 276.224 280.056"
	 xml:space="preserve">
<path fill-rule="evenodd" clip-rule="evenodd" d="M275.5,277L261,237.5c0,0-1.672-4.405-3.5,0c-1.187,2.859-2.246,5.51-2.846,7.023
	l-24.393-24.393C251.235,196.761,264,165.874,264,132c0-32.86-12.014-62.909-31.88-86.012l35.185-35.185l-8.609-8.608
	l-34.938,34.938c-10.456-10.115-22.565-18.533-35.904-24.771c-0.013-0.001-0.022-0.002-0.035-0.004
	c-0.938-0.445-1.981-0.701-3.088-0.701c-3.992,0-7.228,3.236-7.228,7.228c0,2.743,1.528,5.13,3.78,6.354c0,0.004,0,0.007,0,0.011
	c11.999,5.523,22.899,13.013,32.32,22.036L139,121.892V14.707c0.071,0.004,0.143,0.005,0.214,0.01l0.022-14.522
	c0,0-4.809-0.195-7.236-0.195C59.098,0,0,59.099,0,132c0,72.902,59.098,132,132,132c33.041,0,63.245-12.14,86.398-32.201
	l23.673,23.673l-7.845,2.657c0,0-4.351,1.25,0.273,3.371l39,18c0,0,1.781,0.962,2.497,0.356C276.714,279.251,275.5,277,275.5,277z
	 M250,132.5c0,29.879-11.111,57.16-29.42,77.949l-76.46-76.46l77.834-77.834C239.438,76.735,250,103.38,250,132.5z M14.094,136.999
	h80.121v-10.168H14.139C16.987,66.619,64.963,18.226,125,14.712v235.575C64.575,246.75,16.373,197.753,14.094,136.999z M139,250.288
	V152.4l69.736,69.736C189.76,238.397,165.561,248.733,139,250.288z"/>
</svg>
